<?xml version="1.0" standalone="no"?>
<!DOCTYPE svg PUBLIC "-//W3C//DTD SVG 20010904//EN"
 "http://www.w3.org/TR/2001/REC-SVG-20010904/DTD/svg10.dtd">
<svg version="1.0" xmlns="http://www.w3.org/2000/svg"
 width="272.000000pt" height="124.000000pt" viewBox="0 0 272.000000 124.000000"
 preserveAspectRatio="xMidYMid meet">

<g transform="translate(0.000000,124.000000) scale(0.100000,-0.100000)"
fill="#000000" stroke="none">
<path d="M10 965 l0 -55 420 0 c270 0 420 4 420 10 0 6 -147 11 -408 12 l-407
3 -3 43 c-5 61 -22 52 -22 -13z"/>
<path d="M683 342 c-29 -48 -64 -108 -78 -134 l-27 -48 306 0 306 0 0 -75 0
-75 165 0 165 0 0 75 0 75 65 0 c37 0 65 4 65 10 0 6 -33 10 -80 10 l-80 0 0
-75 0 -75 -135 0 -134 0 -3 72 -3 73 -298 5 -297 5 40 69 c22 37 40 70 40 72
0 2 13 26 30 54 17 29 24 50 17 50 -6 0 -35 -40 -64 -88z"/>
<path d="M2290 404 c-13 -13 -45 -34 -70 -46 -41 -21 -62 -23 -232 -26 -106
-2 -188 -8 -188 -13 0 -16 339 -11 396 6 47 14 134 76 134 96 0 15 -13 9 -40
-17z"/>
<path d="M2630 364 c-65 -132 -213 -257 -360 -306 -59 -19 -92 -22 -342 -26
-157 -2 -278 -8 -278 -13 0 -5 114 -9 268 -9 300 0 335 5 462 67 56 27 94 56
150 112 69 69 94 107 137 209 25 59 -4 33 -37 -34z"/>
<path d="M10 115 l0 -105 160 0 160 0 0 105 c0 130 -18 141 -22 13 l-3 -93
-135 0 -135 0 -3 93 c-4 128 -22 117 -22 -13z"/>
</g>
</svg>
